<?xml version="1.0" encoding="UTF-8" standalone="no"?>
<!-- Created with Inkscape (http://www.inkscape.org/) -->

<svg
   xmlns:dc="http://purl.org/dc/elements/1.1/"
   xmlns:cc="http://creativecommons.org/ns#"
   xmlns:rdf="http://www.w3.org/1999/02/22-rdf-syntax-ns#"
   xmlns:svg="http://www.w3.org/2000/svg"
   xmlns="http://www.w3.org/2000/svg"
   version="1.1"
   width="210mm"
   height="297mm"
   id="svg5655">
  <defs
     id="defs5657">
    <marker
       refX="0"
       refY="0"
       orient="auto"
       id="Arrow1MendtxPD"
       style="overflow:visible">
      <path
         d="M 0,0 5,-5 -12.5,0 5,5 0,0 z"
         transform="matrix(-0.4,0,0,-0.4,-4,0)"
         id="path21418"
         style="fill:#484899;fill-rule:evenodd;stroke:#484899;stroke-width:1pt" />
    </marker>
    <filter
       color-interpolation-filters="sRGB"
       id="filter17626">
      <feGaussianBlur
         stdDeviation="11.678878"
         id="feGaussianBlur17628" />
    </filter>
    <marker
       refX="0"
       refY="0"
       orient="auto"
       id="Arrow1MendtxS1"
       style="overflow:visible">
      <path
         d="M 0,0 5,-5 -12.5,0 5,5 0,0 z"
         transform="matrix(-0.4,0,0,-0.4,-4,0)"
         id="path18089"
         style="fill:#484899;fill-rule:evenodd;stroke:#484899;stroke-width:1pt" />
    </marker>
    <clipPath
       id="clipPath3250">
      <path
         d="m 0,0 1627,0 0,1385.61 -1627,0 L 0,0 z"
         id="path3252" />
    </clipPath>
  </defs>
  <metadata
     id="metadata5660">
    <rdf:RDF>
      <cc:Work
         rdf:about="">
        <dc:format>image/svg+xml</dc:format>
        <dc:type
           rdf:resource="http://purl.org/dc/dcmitype/StillImage" />
        <dc:title></dc:title>
      </cc:Work>
    </rdf:RDF>
  </metadata>
  <g
     id="layer1">
    <g
       transform="translate(-480.30065,-375.69112)"
       id="layer1-1">
      <path
         d="m -1202.2313,2138.7721 c 82.7162,-51.0802 183.8477,-112.6243 420.53355,-115.0284 256.45518,0 335.22047,81.6376 395.79633,145.95 104.34516,126.4832 63.46639,294.4163 -76.68554,413.1124 -128.46248,102.9284 -366.36772,182.3955 -568.95724,39.5796 -119.9994,-94.4176 -142.9081,-177.7942 -176.8715,-238.7147"
         transform="translate(1601.7831,-1436.5992)"
         id="path10826"
         style="fill:none;stroke:#484899;stroke-width:30;stroke-linecap:butt;stroke-linejoin:miter;stroke-miterlimit:4;stroke-opacity:1;stroke-dasharray:none;stroke-dashoffset:0;marker-start:none;marker-mid:none;marker-end:url(#Arrow1MendtxPD);filter:url(#filter17626)" />
      <path
         d="m -1202.2313,2138.7721 c 82.7162,-51.0802 183.8477,-112.6243 420.53355,-115.0284 256.45518,0 335.22047,81.6376 395.79633,145.95 104.34516,126.4832 63.46639,294.4163 -76.68554,413.1124 -128.46248,102.9284 -366.36772,182.3955 -568.95724,39.5796 -119.9994,-94.4176 -142.9081,-177.7942 -176.8715,-238.7147"
         transform="translate(1601.7831,-1436.5992)"
         id="path4701"
         style="fill:none;stroke:#484899;stroke-width:30;stroke-linecap:butt;stroke-linejoin:miter;stroke-miterlimit:4;stroke-opacity:1;stroke-dasharray:none;stroke-dashoffset:0;marker-start:none;marker-mid:none;marker-end:url(#Arrow1MendtxS1)" />
      <text
         x="1075.0492"
         y="730.50122"
         id="text2989"
         xml:space="preserve"
         style="font-size:36px;font-style:normal;font-variant:normal;font-weight:normal;font-stretch:normal;text-align:start;line-height:125%;letter-spacing:0px;word-spacing:0px;writing-mode:lr-tb;text-anchor:start;fill:#000000;fill-opacity:1;stroke:none;font-family:Droid Sans;-inkscape-font-specification:Droid Sans"><tspan
           x="1075.0492"
           y="730.50122"
           id="tspan2991">Signal</tspan><tspan
           x="1075.0492"
           y="775.50122"
           id="tspan2997">Acquisition</tspan></text>
      <text
         x="1068.5316"
         y="1068.5022"
         id="text2993"
         xml:space="preserve"
         style="font-size:36px;font-style:normal;font-variant:normal;font-weight:normal;font-stretch:normal;text-align:start;line-height:125%;letter-spacing:0px;word-spacing:0px;writing-mode:lr-tb;text-anchor:start;fill:#000000;fill-opacity:1;stroke:none;font-family:Droid Sans;-inkscape-font-specification:Droid Sans"><tspan
           x="1068.5316"
           y="1068.5022"
           id="tspan2995">Signal </tspan><tspan
           x="1068.5316"
           y="1113.5022"
           id="tspan2999">Processing</tspan></text>
      <g
         transform="matrix(0.26278415,0,0,0.26278415,234.15864,708.15017)"
         id="brain"
         style="opacity:0.8">
        <g
           id="brain-stem"
           style="fill:#ffffff;fill-rule:evenodd;stroke:#000000;stroke-width:2">
          <path
             d="m 518,579 c 7,28 20,47 41,55 30,14 53,48 77,78 13,-7 27,-13 38,-23 L 560,553 518,579 z"
             id="medulla-oblongata"
             style="fill:#fff0cd;fill-opacity:1;stroke:#816647;stroke-width:1.9997319;stroke-miterlimit:4;stroke-dasharray:none" />
          <g
             id="cerebellum">
            <path
               d="m 551,571 c 0,6 1,12 7,18 2,34 15,45 33,45 80,51 141,54 187,24 19,-11 49,-22 51,-33 22,-11 35,-22 47,-33 19,-16 19,-44 11,-79 -190,-6 -286,19 -336,58 z"
               id="path2173"
               style="fill:#d9bb7a;stroke:#816647" />
            <path
               d="m 771,522 c -38,14 -80,30 -113,61"
               id="path2463"
               style="fill:none;stroke:#816647" />
            <path
               d="m 613,607 c 63,31 129,41 198,34"
               id="path2555"
               style="fill:none;stroke:#816647" />
            <path
               d="m 770,618 c 6,9 34,6 69,1"
               id="path2561"
               style="fill:none;stroke:#816647" />
            <path
               d="m 788,610 c 13,4 46,-4 83,-14"
               id="path2563"
               style="fill:none;stroke:#816647" />
            <path
               d="m 777,615 c 9,6 43,1 80,-7"
               id="path2565"
               style="fill:none;stroke:#816647" />
            <path
               d="m 885,579 c -41,18 -72,28 -88,26"
               id="path2567"
               style="fill:none;stroke:#816647" />
            <path
               d="m 808,598 c 22,-1 51,-13 80,-25"
               id="path2569"
               style="fill:none;stroke:#816647" />
            <path
               d="m 822,590 c 22,-5 45,-14 68,-24"
               id="path2571"
               style="fill:none;stroke:#816647" />
            <path
               d="m 891,558 c -18,9 -36,16 -55,22"
               id="path2573"
               style="fill:none;stroke:#816647" />
            <path
               d="m 634,601 c 45,16 93,26 140,29"
               id="path2575"
               style="fill:none;stroke:#816647" />
            <path
               d="m 564,590 c 3,19 12,34 26,43"
               id="path2523"
               style="fill:none;stroke:#816647" />
            <path
               d="m 601,621 c 66,39 122,47 174,38"
               id="path2549"
               style="fill:none;stroke:#816647" />
            <path
               d="m 604,616 c 65,36 125,45 182,37"
               id="path2551"
               style="fill:none;stroke:#816647" />
            <path
               d="m 788,526 c -34,11 -70,25 -104,43"
               id="path2467"
               style="fill:none;stroke:#816647" />
            <path
               d="m 608,611 c 70,34 133,43 193,36"
               id="path2553"
               style="fill:none;stroke:#816647" />
            <path
               d="m 624,603 c 67,32 132,33 197,31"
               id="path2557"
               style="fill:none;stroke:#816647" />
            <path
               d="m 758,623 c 7,9 32,9 71,3"
               id="path2559"
               style="fill:none;stroke:#816647" />
            <path
               d="m 590,633 c 9,-10 17,-22 26,-30"
               id="path2525"
               style="fill:none;stroke:#816647" />
            <path
               d="m 597,624 c 41,31 97,42 159,46"
               id="path2547"
               style="fill:none;stroke:#816647" />
            <path
               d="m 594,630 c 34,24 85,41 144,46"
               id="path2545"
               style="fill:none;stroke:#816647" />
            <path
               d="m 663,571 c 12,-9 24,-18 36,-27"
               id="path2465"
               style="fill:none;stroke:#816647" />
            <path
               d="m 623,603 c 14,-12 19,-28 18,-49"
               id="path2497"
               style="fill:none;stroke:#816647" />
            <path
               d="m 677,601 c 32,5 63,10 95,16"
               id="path2529"
               style="fill:none;stroke:#816647" />
            <path
               d="m 869,551 c -28,29 -65,53 -111,72 -39,-3 -78,-16 -117,-24"
               id="path2527"
               style="fill:none;stroke:#816647" />
            <path
               d="m 578,591 c -2,14 2,28 14,37"
               id="path2521"
               style="fill:none;stroke:#816647" />
            <path
               d="m 561,589 -4,-18"
               id="path2517"
               style="fill:none;stroke:#816647" />
            <path
               d="m 567,589 c -4,-7 -4,-14 -3,-21"
               id="path2515"
               style="fill:none;stroke:#816647" />
            <path
               d="m 575,590 c -2,-9 -3,-18 -3,-27"
               id="path2513"
               style="fill:none;stroke:#816647" />
            <path
               d="m 579,591 4,-35"
               id="path2511"
               style="fill:none;stroke:#816647" />
            <path
               d="m 588,593 c -2,11 3,20 12,28"
               id="path2519"
               style="fill:none;stroke:#816647" />
            <path
               d="m 786,610 c -29,-5 -57,-10 -85,-14"
               id="path2531"
               style="fill:none;stroke:#816647" />
            <path
               d="m 727,590 c 25,4 46,7 70,14"
               id="path2533"
               style="fill:none;stroke:#816647" />
            <path
               d="m 746,585 c 22,0 43,5 62,13"
               id="path2535"
               style="fill:none;stroke:#816647" />
            <path
               d="m 585,593 c 1,-12 4,-23 7,-34"
               id="path2509"
               style="fill:none;stroke:#816647" />
            <path
               d="m 774,578 c 15,2 31,6 46,13"
               id="path2537"
               style="fill:none;stroke:#816647" />
            <path
               d="m 590,594 c 5,-11 7,-24 11,-34"
               id="path2507"
               style="fill:none;stroke:#816647" />
            <path
               d="m 607,602 c 10,-13 18,-28 22,-45"
               id="path2501"
               style="fill:none;stroke:#816647" />
            <path
               d="m 616,602 c 10,-13 17,-28 18,-46"
               id="path2499"
               style="fill:none;stroke:#816647" />
            <path
               d="m 600,600 23,-42"
               id="path2503"
               style="fill:none;stroke:#816647" />
            <path
               d="m 594,598 c 6,-13 10,-28 18,-38"
               id="path2505"
               style="fill:none;stroke:#816647" />
            <path
               d="m 832,583 c -9,-1 -20,0 -30,0"
               id="path2539"
               style="fill:none;stroke:#816647" />
            <path
               d="m 843,574 c -20,4 -38,4 -53,0"
               id="path2541"
               style="fill:none;stroke:#816647" />
            <path
               d="m 804,570 c 9,2 28,0 47,-3 14,-4 27,-9 40,-15"
               id="path2543"
               style="fill:none;stroke:#816647" />
            <path
               d="m 635,601 c 9,-12 14,-28 16,-47"
               id="path2495"
               style="fill:none;stroke:#816647" />
            <path
               d="m 644,598 c 9,-15 13,-29 15,-44"
               id="path2493"
               style="fill:none;stroke:#816647" />
            <path
               d="m 669,552 c -12,52 -40,56 -72,47 -13,-10 -26,-10 -39,-10"
               id="path2491"
               style="fill:none;stroke:#816647" />
            <path
               d="m 889,523 c -44,14 -223,77 -242,77 m -1,-4 c 75,-31 155,-55 231,-77"
               id="path2471"
               style="fill:none;stroke:#816647" />
            <path
               d="m 811,527 c -52,17 -109,41 -160,65"
               id="path2469"
               style="fill:none;stroke:#816647" />
            <path
               d="m 891,544 c -46,17 -198,56 -234,60 79,-26 156,-47 233,-71"
               id="path2473"
               style="fill:none;stroke:#816647" />
          </g>
        </g>
        <g
           id="cerebrum"
           style="fill:#fdd99b;fill-rule:evenodd;stroke:#816647;stroke-width:2">
          <path
             d="m 436,56 c -31,-2 -66,4 -96,21 -15,1 -31,9 -44,15 -29,2 -54,12 -76,29 -19,6 -39,13 -56,28 -32,19 -53,41 -63,68 -21,7 -32,23 -32,45 -15,13 -25,30 -27,52 -8,17 -7,34 -2,51 -1,6 -5,13 0,19 -5,11 -3,22 2,33 3,0 4,13 8,15 2,29 9,48 18,62 10,16 20,30 36,34 16,32 82,30 162,19 7,11 14,19 21,27 11,23 29,37 51,46 18,16 40,27 81,11 39,-2 70,-11 80,-41 10,-1 23,-6 44,-16 15,-3 27,-11 38,-20 11,8 34,4 57,0 36,-2 61,-7 73,-17 17,-5 34,-10 47,-20 30,10 58,14 81,0 67,7 120,-7 134,-79 11,-12 8,-30 3,-48 11,-18 -4,-33 -19,-49 -2,-21 -12,-36 -27,-49 2,-14 -3,-26 -23,-36 -8,-24 -22,-39 -39,-50 0,-25 -21,-41 -52,-53 C 792,124 762,103 727,88 713,77 699,76 685,78 669,58 641,53 603,60 593,53 582,53 572,53 549,51 529,50 512,50 483,44 459,48 436,56 z"
             id="path2179"
             style="fill:#fdd99b;stroke:#816647;stroke-width:4" />
          <path
             d="m 149,168 c -11,10 -11,17 -4,21"
             id="path2181"
             style="fill:#fdd99b;stroke:#816647" />
          <path
             d="m 178,155 c 49,-34 85,-37 110,-20"
             id="path2183"
             style="fill:#fdd99b;stroke:#816647" />
          <path
             d="m 254,184 c 19,-14 27,-41 42,-60 20,-30 58,-5 82,-7"
             id="path2185"
             style="fill:#fdd99b;stroke:#816647" />
          <path
             d="m 129,215 c -12,14 3,26 3,39"
             id="path2187"
             style="fill:#fdd99b;stroke:#816647" />
          <path
             d="m 91,256 c 17,-9 13,-29 29,-43 11,-14 47,-15 60,-34 14,-21 32,-28 53,-24"
             id="path2189"
             style="fill:#fdd99b;stroke:#816647" />
          <path
             d="m 217,174 c 11,-11 19,-22 26,-33"
             id="path2191"
             style="fill:#fdd99b;stroke:#816647" />
          <path
             d="m 285,176 c 11,-8 16,-18 15,-29"
             id="path2193"
             style="fill:#fdd99b;stroke:#816647" />
          <path
             d="m 274,108 c 8,3 19,1 36,-11"
             id="path2195"
             style="fill:#fdd99b;stroke:#816647" />
          <path
             d="m 297,93 c -4,5 -7,10 -7,14"
             id="path2197"
             style="fill:#fdd99b;stroke:#816647" />
          <path
             d="m 341,77 c 2,4 5,7 8,7"
             id="path2199"
             style="fill:#fdd99b;stroke:#816647" />
          <path
             d="m 369,65 c -4,5 -7,9 -9,13"
             id="path2201"
             style="fill:#fdd99b;stroke:#816647" />
          <path
             d="m 457,64 c -8,1 -16,-1 -24,-8"
             id="path2203"
             style="fill:#fdd99b;stroke:#816647" />
          <path
             d="m 471,124 c -10,-2 -18,-6 -14,-29 1,-20 -15,-26 -43,-24 -26,2 -50,4 -61,10 -9,9 -19,18 -31,28"
             id="path2205"
             style="fill:#fdd99b;stroke:#816647" />
          <path
             d="m 357,89 c -7,7 -9,15 -7,23"
             id="path2207"
             style="fill:#fdd99b;stroke:#816647" />
          <path
             d="m 431,82 c -10,17 -24,32 -34,41 -21,22 -35,46 -13,72"
             id="path2209"
             style="fill:#fdd99b;stroke:#816647" />
          <path
             d="m 372,169 c -11,1 -19,-6 -26,-16 -5,-10 -19,-10 -25,-29"
             id="path2211"
             style="fill:#fdd99b;stroke:#816647" />
          <path
             d="m 454,129 c -49,2 -48,33 -72,44"
             id="path2213"
             style="fill:#fdd99b;stroke:#816647" />
          <path
             d="m 486,178 c 4,-16 -7,-22 -32,-21 -12,1 -24,1 -33,-4"
             id="path2215"
             style="fill:#fdd99b;stroke:#816647" />
          <path
             d="m 461,182 c -26,9 -51,12 -77,14 -12,-1 -29,38 -31,51"
             id="path2217"
             style="fill:#fdd99b;stroke:#816647" />
          <path
             d="m 48,324 c 7,-11 14,-17 23,-20"
             id="path2219"
             style="fill:#fdd99b;stroke:#816647" />
          <path
             d="m 71,311 c -4,-17 27,-22 36,-32 6,-5 11,-24 42,-31 17,-6 31,-24 51,-42 8,-9 23,-13 40,-14"
             id="path2221"
             style="fill:#fdd99b;stroke:#816647" />
          <path
             d="m 211,167 c -9,12 -16,27 -6,34"
             id="path2223"
             style="fill:#fdd99b;stroke:#816647" />
          <path
             d="m 169,236 c -2,12 -2,24 -1,35"
             id="path2225"
             style="fill:#fdd99b;stroke:#816647" />
          <path
             d="m 199,257 c -7,11 -19,24 -14,39"
             id="path2227"
             style="fill:#fdd99b;stroke:#816647" />
          <path
             d="m 175,292 c 18,5 28,23 41,28"
             id="path2229"
             style="fill:#fdd99b;stroke:#816647" />
          <path
             d="m 184,282 c -6,-10 -15,-15 -27,-6 -17,10 -33,21 -50,31 -16,14 -21,28 -14,42"
             id="path2231"
             style="fill:#fdd99b;stroke:#816647" />
          <path
             d="M 49,352 C 62,337 76,330 90,331"
             id="path2233"
             style="fill:#fdd99b;stroke:#816647" />
          <path
             d="m 71,335 c -3,-3 -8,-4 -14,-5"
             id="path2235"
             style="fill:#fdd99b;stroke:#816647" />
          <path
             d="m 103,319 c 24,-13 36,-10 40,3 10,54 26,64 41,78"
             id="path2237"
             style="fill:#fdd99b;stroke:#816647" />
          <path
             d="m 156,299 c -4,4 -10,10 -16,17"
             id="path2239"
             style="fill:#fdd99b;stroke:#816647" />
          <path
             d="m 206,268 c 18,-16 43,-33 -4,-49"
             id="path2241"
             style="fill:#fdd99b;stroke:#816647" />
          <path
             d="m 229,242 c 29,-1 45,5 46,21 1,11 -6,22 -5,34"
             id="path2243"
             style="fill:#fdd99b;stroke:#816647" />
          <path
             d="m 350,386 c 25,-24 40,-46 23,-84 -6,-19 -13,-37 -20,-55 -31,0 -58,5 -78,15"
             id="path2245"
             style="fill:#fdd99b;stroke:#816647" />
          <path
             d="m 323,276 c -15,14 -47,23 -45,48 1,47 18,57 29,68 4,3 8,15 18,27"
             id="path2247"
             style="fill:#fdd99b;stroke:#816647" />
          <path
             d="m 256,149 c -5,19 -26,39 -7,61 7,-5 26,-5 35,-7 16,-10 59,7 76,-5"
             id="path2249"
             style="fill:#fdd99b;stroke:#816647" />
          <path
             d="m 436,269 c 8,-30 -7,-48 -36,-57"
             id="path2251"
             style="fill:#fdd99b;stroke:#816647" />
          <path
             d="m 453,346 c -14,-2 -44,-23 -40,-44 -3,-25 -18,-34 -19,-44 -2,-5 5,-17 -1,-24"
             id="path2253"
             style="fill:#fdd99b;stroke:#816647" />
          <path
             d="m 308,393 c 8,-13 8,-25 -12,-39"
             id="path2255"
             style="fill:#fdd99b;stroke:#816647" />
          <path
             d="m 243,275 c 1,14 2,27 8,41"
             id="path2257"
             style="fill:#fdd99b;stroke:#816647" />
          <path
             d="m 278,324 c -16,-5 -29,-12 -34,-2 -5,4 -19,10 -15,28 -1,8 -30,12 -41,17"
             id="path2259"
             style="fill:#fdd99b;stroke:#816647" />
          <path
             d="m 209,369 c -9,7 -6,21 -10,31 2,21 26,25 51,28"
             id="path2261"
             style="fill:#fdd99b;stroke:#816647" />
          <path
             d="m 96,366 c 6,6 17,11 41,14 10,2 9,9 32,16 9,1 20,2 30,4"
             id="path2263"
             style="fill:#fdd99b;stroke:#816647" />
          <path
             d="m 111,336 c -6,6 -19,11 -20,19 -2,8 -8,16 -13,24 -8,15 -13,27 -12,37 1,21 24,32 36,45"
             id="path2265"
             style="fill:#fdd99b;stroke:#816647" />
          <path
             d="m 47,371 c -3,-2 -5,-4 -7,-6"
             id="path2267"
             style="fill:#fdd99b;stroke:#816647" />
          <path
             d="m 70,362 c -7,7 -14,14 -19,23 -4,11 -3,20 -5,39"
             id="path2269"
             style="fill:#fdd99b;stroke:#816647" />
          <path
             d="m 51,387 c 0,-3 -2,-5 -4,-7"
             id="path2271"
             style="fill:#fdd99b;stroke:#816647" />
          <path
             d="m 51,432 c 2,-6 11,-12 6,-19"
             id="path2273"
             style="fill:#fdd99b;stroke:#816647" />
          <path
             d="m 70,495 c 2,-4 1,-9 3,-11"
             id="path2275"
             style="fill:#fdd99b;stroke:#816647" />
          <path
             d="m 104,528 c 6,-10 7,-16 3,-17"
             id="path2277"
             style="fill:#fdd99b;stroke:#816647" />
          <path
             d="m 114,515 -5,-3"
             id="path2279"
             style="fill:#fdd99b;stroke:#816647" />
          <path
             d="m 87,449 c -10,20 1,34 28,43"
             id="path2281"
             style="fill:#fdd99b;stroke:#816647" />
          <path
             d="m 84,394 c 22,12 45,37 65,44 22,8 54,36 73,23"
             id="path2283"
             style="fill:#fdd99b;stroke:#816647" />
          <path
             d="m 250,446 c -15,3 -33,15 -33,23 1,14 45,24 63,20"
             id="path2285"
             style="fill:#fdd99b;stroke:#816647" />
          <path
             d="m 104,471 c 7,6 17,8 36,-1 20,-6 27,1 41,5"
             id="path2287"
             style="fill:#fdd99b;stroke:#816647" />
          <path
             d="m 219,473 c -24,-2 -36,-1 -44,7 -14,9 -28,7 -33,8 -6,2 -23,19 -47,7"
             id="path2289"
             style="fill:#fdd99b;stroke:#816647" />
          <path
             d="m 154,547 c 33,2 68,1 104,-4"
             id="path2291"
             style="fill:#fdd99b;stroke:#816647" />
          <path
             d="m 192,507 c -8,-2 -12,-6 -12,-13 -1,14 -9,17 -15,23 -7,5 -6,13 -12,20"
             id="path2293"
             style="fill:#fdd99b;stroke:#816647" />
          <path
             d="m 228,488 c -20,0 -39,-1 -53,-8"
             id="path2295"
             style="fill:#fdd99b;stroke:#816647" />
          <path
             d="m 217,488 c 3,17 26,19 38,25"
             id="path2297"
             style="fill:#fdd99b;stroke:#816647" />
          <path
             d="m 209,503 c 2,-4 8,-4 12,-7"
             id="path2299"
             style="fill:#fdd99b;stroke:#816647" />
          <path
             d="m 237,500 c 5,-4 11,-6 15,-11"
             id="path2301"
             style="fill:#fdd99b;stroke:#816647" />
          <path
             d="m 266,501 c -9,-15 19,-20 26,-36"
             id="path2303"
             style="fill:#fdd99b;stroke:#816647" />
          <path
             d="m 264,406 c 16,13 39,20 53,24"
             id="path2305"
             style="fill:#fdd99b;stroke:#816647" />
          <path
             d="m 249,468 c 29,0 55,-19 60,-41 1,-2 8,-3 12,-4"
             id="path2307"
             style="fill:#fdd99b;stroke:#816647" />
          <path
             d="m 498,63 c 5,-5 12,-10 23,-13"
             id="path2309"
             style="fill:#fdd99b;stroke:#816647" />
          <path
             d="m 516,73 c -26,0 -48,4 -59,23"
             id="path2311"
             style="fill:#fdd99b;stroke:#816647" />
          <path
             d="m 489,91 c 6,4 10,8 10,13"
             id="path2313"
             style="fill:#fdd99b;stroke:#816647" />
          <path
             d="m 776,364 c 4,-46 -85,-59 -129,17 -6,16 -60,10 -88,18 -25,10 -50,24 -75,39 -10,16 -45,-10 -65,-8 -65,7 -66,104 -2,120"
             id="path2315"
             style="fill:#fdd99b;stroke:#816647" />
          <path
             d="m 536,327 c 1,20 -21,59 12,77"
             id="path2317"
             style="fill:#fdd99b;stroke:#816647" />
          <path
             d="m 475,369 c 11,-4 14,-21 21,-30"
             id="path2319"
             style="fill:#fdd99b;stroke:#816647" />
          <path
             d="m 453,394 c -5,11 1,15 12,16"
             id="path2321"
             style="fill:#fdd99b;stroke:#816647" />
          <path
             d="m 495,581 c 39,-35 33,-98 -28,-94 -21,2 -36,-3 -46,-13"
             id="path2323"
             style="fill:#fdd99b;stroke:#816647" />
          <path
             d="m 525,473 c 14,25 28,19 45,19 30,-1 47,-31 26,-63"
             id="path2325"
             style="fill:#fdd99b;stroke:#816647" />
          <path
             d="m 546,492 c -13,4 -23,10 -30,18"
             id="path2327"
             style="fill:#fdd99b;stroke:#816647" />
          <path
             d="m 493,514 c -12,4 -24,17 -38,26 -12,18 -29,25 -38,35 -10,15 -15,46 -72,29"
             id="path2329"
             style="fill:#fdd99b;stroke:#816647" />
          <path
             d="m 494,591 c -28,16 -73,2 -79,9"
             id="path2331"
             style="fill:#fdd99b;stroke:#816647" />
          <path
             d="m 567,452 c -10,-3 -16,-17 -21,-24"
             id="path2333"
             style="fill:#fdd99b;stroke:#816647" />
          <path
             d="m 392,411 c 22,12 41,9 60,-6"
             id="path2335"
             style="fill:#fdd99b;stroke:#816647" />
          <path
             d="m 418,418 c -8,12 -17,17 -28,16 -12,-2 -29,11 -49,27 -16,13 -22,27 -26,42 -3,18 -6,26 -10,33"
             id="path2337"
             style="fill:#fdd99b;stroke:#816647" />
          <path
             d="m 327,442 c -2,12 2,20 10,23"
             id="path2339"
             style="fill:#fdd99b;stroke:#816647" />
          <path
             d="m 314,587 c -10,-3 -22,-13 -30,-16"
             id="path2341"
             style="fill:#fdd99b;stroke:#816647" />
          <path
             d="m 356,542 c -38,18 -46,46 -17,79"
             id="path2343"
             style="fill:#fdd99b;stroke:#816647" />
          <path
             d="m 333,503 c -2,13 7,22 16,30 8,4 8,15 10,18 12,17 14,28 15,38"
             id="path2345"
             style="fill:#fdd99b;stroke:#816647" />
          <path
             d="m 611,358 c 14,-16 39,-3 58,-5"
             id="path2347"
             style="fill:#fdd99b;stroke:#816647" />
          <path
             d="m 562,373 c 12,-10 17,-23 13,-41"
             id="path2349"
             style="fill:#fdd99b;stroke:#816647" />
          <path
             d="m 586,365 c -4,-3 -8,-6 -11,-10"
             id="path2351"
             style="fill:#fdd99b;stroke:#816647" />
          <path
             d="m 581,554 c -4,-10 -1,-20 9,-29"
             id="path2353"
             style="fill:#fdd99b;stroke:#816647" />
          <path
             d="m 562,548 c 3,-5 13,-6 19,-9"
             id="path2355"
             style="fill:#fdd99b;stroke:#816647" />
          <path
             d="m 639,509 c -3,19 10,28 38,29"
             id="path2357"
             style="fill:#fdd99b;stroke:#816647" />
          <path
             d="m 630,540 c 5,-20 -8,-39 -34,-58"
             id="path2359"
             style="fill:#fdd99b;stroke:#816647" />
          <path
             d="m 631,528 c 3,-2 6,-4 9,-6"
             id="path2361"
             style="fill:#fdd99b;stroke:#816647" />
          <path
             d="m 683,467 c -15,-3 -27,-9 -27,-25 -3,-14 -21,-28 -13,-56"
             id="path2363"
             style="fill:#fdd99b;stroke:#816647" />
          <path
             d="m 612,480 c 12,12 36,-3 58,-3 54,-2 68,27 42,59"
             id="path2365"
             style="fill:#fdd99b;stroke:#816647" />
          <path
             d="m 724,512 c 26,-1 44,-11 55,-32"
             id="path2367"
             style="fill:#fdd99b;stroke:#816647" />
          <path
             d="m 758,518 -9,-10"
             id="path2369"
             style="fill:#fdd99b;stroke:#816647" />
          <path
             d="m 798,506 c 16,0 30,3 41,12"
             id="path2371"
             style="fill:#fdd99b;stroke:#816647" />
          <path
             d="m 830,500 c -5,3 -10,5 -15,7"
             id="path2373"
             style="fill:#fdd99b;stroke:#816647" />
          <path
             d="m 856,507 c -3,-17 8,-25 9,-35"
             id="path2375"
             style="fill:#fdd99b;stroke:#816647" />
          <path
             d="m 675,403 c 8,7 18,13 16,21 3,17 24,19 36,21 24,10 46,21 33,41"
             id="path2377"
             style="fill:#fdd99b;stroke:#816647" />
          <path
             d="m 549,310 c -13,-4 -25,-12 -37,-26"
             id="path2379"
             style="fill:#fdd99b;stroke:#816647" />
          <path
             d="m 588,152 c -9,6 -19,18 -33,27 -14,8 -29,15 -36,40 -2,22 0,37 -5,51 -4,13 -6,25 0,34"
             id="path2381"
             style="fill:#fdd99b;stroke:#816647" />
          <path
             d="m 524,140 c 33,8 44,18 41,31"
             id="path2383"
             style="fill:#fdd99b;stroke:#816647" />
          <path
             d="m 727,434 c 6,-10 6,-19 6,-29 10,-16 64,6 71,-39"
             id="path2385"
             style="fill:#fdd99b;stroke:#816647" />
          <path
             d="m 728,364 c 5,11 6,25 5,41"
             id="path2387"
             style="fill:#fdd99b;stroke:#816647" />
          <path
             d="m 512,183 c 6,9 9,18 11,26"
             id="path2389"
             style="fill:#fdd99b;stroke:#816647" />
          <path
             d="m 791,478 c 16,-24 16,-57 45,-67"
             id="path2391"
             style="fill:#fdd99b;stroke:#816647" />
          <path
             d="m 753,457 c 2,-6 5,-11 8,-15"
             id="path2393"
             style="fill:#fdd99b;stroke:#816647" />
          <path
             d="m 803,329 c -7,-4 -10,-11 -7,-23"
             id="path2395"
             style="fill:#fdd99b;stroke:#816647" />
          <path
             d="m 773,346 c 8,-5 15,-15 22,-28"
             id="path2397"
             style="fill:#fdd99b;stroke:#816647" />
          <path
             d="m 815,269 c 1,25 22,27 18,55"
             id="path2399"
             style="fill:#fdd99b;stroke:#816647" />
          <path
             d="m 762,322 c 1,-27 15,-43 32,-57 10,-11 22,-17 15,-52 4,-21 29,-44 7,-59 -26,-12 -48,-36 -88,-37"
             id="path2401"
             style="fill:#fdd99b;stroke:#816647" />
          <path
             d="m 546,288 c 12,-21 47,-33 50,-41 8,-21 2,-42 3,-62 6,-17 22,-24 40,-29 28,-32 58,-36 89,-12"
             id="path2403"
             style="fill:#fdd99b;stroke:#816647" />
          <path
             d="m 600,220 c -4,-5 -9,-8 -14,-11"
             id="path2405"
             style="fill:#fdd99b;stroke:#816647" />
          <path
             d="m 595,250 c 9,-5 17,-7 26,-6"
             id="path2407"
             style="fill:#fdd99b;stroke:#816647" />
          <path
             d="m 505,116 c 51,5 115,13 119,45"
             id="path2409"
             style="fill:#fdd99b;stroke:#816647" />
          <path
             d="m 629,123 c -7,-10 -24,-15 -32,-22"
             id="path2411"
             style="fill:#fdd99b;stroke:#816647" />
          <path
             d="m 597,77 c 7,12 11,23 18,35"
             id="path2413"
             style="fill:#fdd99b;stroke:#816647" />
          <path
             d="m 603,60 c 12,17 35,18 36,40"
             id="path2415"
             style="fill:#fdd99b;stroke:#816647" />
          <path
             d="m 634,85 c 2,-3 4,-5 6,-8"
             id="path2417"
             style="fill:#fdd99b;stroke:#816647" />
          <path
             d="M 674,131 C 662,102 636,103 623,96"
             id="path2419"
             style="fill:#fdd99b;stroke:#816647" />
          <path
             d="m 659,100 c 16,6 24,16 24,29"
             id="path2421"
             style="fill:#fdd99b;stroke:#816647" />
          <path
             d="m 635,67 c 20,5 37,13 51,27"
             id="path2423"
             style="fill:#fdd99b;stroke:#816647" />
          <path
             d="m 671,106 c 5,-13 28,-16 57,-17"
             id="path2425"
             style="fill:#fdd99b;stroke:#816647" />
          <path
             d="m 719,155 c 9,-23 60,-13 89,9"
             id="path2427"
             style="fill:#fdd99b;stroke:#816647" />
          <path
             d="m 625,180 c 16,-8 35,-10 54,1"
             id="path2429"
             style="fill:#fdd99b;stroke:#816647" />
          <path
             d="m 695,140 c -15,15 -29,30 -10,47 35,34 56,53 26,83"
             id="path2431"
             style="fill:#fdd99b;stroke:#816647" />
          <path
             d="m 782,162 c 9,13 9,28 3,42"
             id="path2433"
             style="fill:#fdd99b;stroke:#816647" />
          <path
             d="m 727,201 c 14,9 22,23 24,42 10,47 -3,58 -17,68"
             id="path2435"
             style="fill:#fdd99b;stroke:#816647" />
          <path
             d="m 641,293 c 30,7 52,8 57,-8"
             id="path2437"
             style="fill:#fdd99b;stroke:#816647" />
          <path
             d="m 674,298 c 7,1 14,4 19,8"
             id="path2439"
             style="fill:#fdd99b;stroke:#816647" />
          <path
             d="m 732,327 c 11,-15 0,-23 -46,-31"
             id="path2441"
             style="fill:#fdd99b;stroke:#816647" />
          <path
             d="m 740,213 c 17,-13 20,-34 30,-51"
             id="path2443"
             style="fill:#fdd99b;stroke:#816647" />
          <path
             d="m 809,214 c 21,-2 37,6 50,23"
             id="path2445"
             style="fill:#fdd99b;stroke:#816647" />
          <path
             d="m 841,199 c 6,2 16,5 28,8"
             id="path2447"
             style="fill:#fdd99b;stroke:#816647" />
          <path
             d="m 912,290 c -14,5 -23,16 -28,31 -13,10 -20,25 -24,41"
             id="path2449"
             style="fill:#fdd99b;stroke:#816647" />
          <path
             d="m 962,422 c 7,3 11,8 11,16"
             id="path2451"
             style="fill:#fdd99b;stroke:#816647" />
          <path
             d="m 941,328 c -4,5 -9,7 -16,8 -9,8 -15,17 -15,28 7,17 8,30 4,41"
             id="path2453"
             style="fill:#fdd99b;stroke:#816647" />
          <path
             d="m 913,350 c 0,-6 -2,-13 -7,-19"
             id="path2455"
             style="fill:#fdd99b;stroke:#816647" />
          <path
             d="m 937,403 c 6,-9 10,-19 10,-34 1,-12 4,-22 9,-28"
             id="path2457"
             style="fill:#fdd99b;stroke:#816647" />
          <path
             d="m 947,378 c 10,1 13,7 12,15 7,6 10,15 13,23"
             id="path2459"
             style="fill:#fdd99b;stroke:#816647" />
          <path
             d="m 677,197 c -9,18 -25,35 -27,54 -16,35 -71,32 -84,59"
             id="path2461"
             style="fill:#fdd99b;stroke:#816647" />
          <path
             d="m 884,320 c -2,-30 -49,-77 -77,-68 23,-16 83,23 77,68 z"
             id="path2577"
             style="fill:#816647;stroke:#816647;stroke-width:1" />
          <path
             d="m 264,547 c -4,-28 9,-53 30,-74 23,-18 18,-44 28,-52 14,-27 51,-44 103,-53 16,-19 37,-29 66,-28 20,-17 38,-33 75,-33 2,9 5,18 9,26 -4,-5 -10,-11 -14,-18 -33,-3 -56,16 -69,32 -23,-5 -43,2 -62,24 -53,10 -91,26 -104,53 -7,24 -15,44 -30,52 -17,18 -32,44 -22,82 -3,-3 -6,-8 -10,-11 z"
             id="path2579"
             style="fill:#816647;stroke:#816647;stroke-width:1" />
          <path
             d="m 567,54 c -9,6 -5,21 -11,32 -48,3 -75,21 -66,54 11,13 13,22 6,28 -14,8 -19,29 -24,52 -10,13 -16,34 -16,56 -1,19 -29,30 -25,46 2,0 3,0 4,0 0,-7 4,-14 11,-20 9,-5 13,-17 16,-33 -1,-14 3,-28 14,-43 5,-19 7,-47 27,-56 12,-5 5,-18 -6,-34 -13,-32 22,-40 59,-45 15,-4 11,-28 21,-36 -3,-1 -7,-1 -10,-1 z"
             id="path2581"
             style="fill:#816647;stroke:#816647;stroke-width:1" />
          <path
             d="m 530,160 c -9,-3 -17,-2 -24,4"
             id="path2583"
             style="fill:#fdd99b;stroke:#816647" />
          <path
             d="m 903,251 c -7,8 -15,17 -23,25 7,0 16,-5 28,-20 l -5,-5 z"
             id="path2599"
             style="fill:#816647;stroke:#816647;stroke-width:1" />
          <path
             d="m 881,277 c -17,14 -34,29 -46,44 -9,12 -10,29 -7,48 2,14 4,28 7,41 4,0 7,0 11,1 16,16 56,13 68,19 7,10 13,17 17,15 7,7 12,15 15,23 -3,-10 3,-10 -18,-34 -9,-9 -30,-14 -63,-19 -23,-8 -28,-22 -30,-40 -4,-17 -6,-33 0,-50 13,-16 29,-32 46,-48 z"
             id="path2601"
             style="fill:#816647;stroke:#816647;stroke-width:1" />
          <path
             d="m 838,407 c 3,23 11,44 28,60 34,1 55,20 85,21 l -7,7 c -14,1 -27,-11 -40,-13 -11,-4 -33,-5 -43,-10 -15,-21 -24,-43 -23,-65 z"
             id="path2609"
             style="fill:#816647;stroke:#816647;stroke-width:1" />
        </g>
      </g>
      <text
         x="680.04956"
         y="647.83899"
         id="text3784"
         xml:space="preserve"
         style="font-size:36px;font-style:normal;font-variant:normal;font-weight:normal;font-stretch:normal;line-height:125%;letter-spacing:0px;word-spacing:0px;fill:#000000;fill-opacity:1;stroke:none;font-family:Droid Sans;-inkscape-font-specification:Droid Sans"><tspan
           x="680.04956"
           y="647.83899"
           id="tspan3786">Amplifier</tspan></text>
    </g>
  </g>
  <g
     transform="matrix(1.25,0,0,-1.25,92.143375,809.65873)"
     id="g3242">
    <g
       transform="scale(0.1,0.1)"
       id="g3244">
      <g
         id="g3246">
        <g
           clip-path="url(#clipPath3250)"
           id="g3248">
          <path
             d="M 1627.43,692.797 C 1627.43,310.18 1263.14,0 813.73,0 364.316,0 0,310.18 0,692.797 c 0,382.633 364.316,692.813 813.73,692.813 449.41,0 813.7,-310.18 813.7,-692.813"
             id="path3254"
             style="fill:#f9a70d;fill-opacity:1;fill-rule:nonzero;stroke:none" />
          <path
             d="m 317.727,903.824 c -129.719,0 -222.6332,-97.515 -222.6332,-242.867 l 0,-293.195 C 118.344,330.57 145.523,295.461 176.051,262.691 l 0,383.543 c 0,121.438 64.394,180.313 141.676,180.313 86.472,0 147.191,-63.477 147.191,-153.633 0,-91.074 -57.961,-151.789 -145.356,-151.789 -36.796,0 -81.874,18.395 -111.316,38.637 l 0,-84.633 c 38.641,-22.082 80.957,-31.281 125.113,-31.281 113.157,0 212.508,95.672 212.508,218.949 0,130.629 -84.633,241.027 -228.14,241.027"
             id="path3256"
             style="fill:#ffffff;fill-opacity:1;fill-rule:nonzero;stroke:none" />
          <path
             d="m 687.566,894.625 0,-264.949 c 0,-60.715 34.961,-108.551 103.039,-108.551 68.079,0 103.032,47.836 103.032,108.551 l 0,264.949 80.953,0 0,-265.867 c 0,-101.196 -49.668,-160.07 -143.512,-184.91 l 0,-189.508 -80.949,0 0,189.508 c -93.84,24.84 -143.52,83.714 -143.52,184.91 l 0,265.867 80.957,0"
             id="path3258"
             style="fill:#ffffff;fill-opacity:1;fill-rule:nonzero;stroke:none" />
          <path
             d="m 1058.34,453.047 0,482.973 c 0,100.28 65.31,160.99 156.39,160.99 l 68.07,0 0,-77.28 -57.04,0 c -53.35,0 -86.46,-25.75 -86.46,-81.871 l 0,-43.234 132.46,0 0,-77.277 -132.46,0 0,-364.301 -80.96,0"
             id="path3260"
             style="fill:#ffffff;fill-opacity:1;fill-rule:nonzero;stroke:none" />
          <path
             d="m 1545.92,894.625 -132.47,0 0,43.234 c 0,56.121 33.11,81.871 86.47,81.871 l 31.29,0 c -16.81,26.69 -35.7,52.25 -56.33,76.69 -83.67,-5.95 -142.39,-65.36 -142.39,-160.4 l 0,-482.973 80.96,0 0,364.301 132.47,0 0,77.277"
             id="path3262"
             style="fill:#ffffff;fill-opacity:1;fill-rule:nonzero;stroke:none" />
        </g>
      </g>
    </g>
  </g>
</svg>
